# xmcd
#
# Track frame offsets:
#	150
#	21344
#	42979
#	64923
#	89492
#	108865
#	128690
#	149660
#
# Disc length: 2297 seconds
#
# Revision: 1
# Processed by: cddbd v1.5.2PL0 Copyright (c) Steve Scherf et al.
# Submitted via: audiograbber 1.82.01
#
DISCID=7108f708
DTITLE=Muddy Waters - After The Rain
DYEAR=1969
DGENRE=Blues
TTITLE0=I Am The Blues
TTITLE1=Ramblin´ Mind
TTITLE2=Rollin´ And Tumblin´
TTITLE3=Bottom Of The Sea
TTITLE4=Honey Bee
TTITLE5=Blues And Trouble
TTITLE6=Hurtin´ Soul
TTITLE7=Screamin´ And Cryin´
EXTD=
EXTT0=
EXTT1=
EXTT2=
EXTT3=
EXTT4=
EXTT5=
EXTT6=
EXTT7=
PLAYORDER=
